<svg xmlns="http://www.w3.org/2000/svg" version="1.1" xmlns:xlink="http://www.w3.org/1999/xlink" xmlns:svgjs="http://svgjs.dev/svgjs" width="1000" height="1000" viewBox="0 0 1000 1000"><rect width="1000" height="1000" fill="#ffffff"></rect><g transform="matrix(0.7,0,0,0.7,149.57577247317437,345.98798783168724)"><svg viewBox="0 0 396 174" data-background-color="#ffffff" preserveAspectRatio="xMidYMid meet" height="439" width="1000" xmlns="http://www.w3.org/2000/svg" xmlns:xlink="http://www.w3.org/1999/xlink"><g id="tight-bounds" transform="matrix(1,0,0,1,0.23999159148775107,0.20497922969873628)"><svg viewBox="0 0 395.52 173.59004154060253" height="173.59004154060253" width="395.52"><g><svg viewBox="0 0 395.52 173.59004154060253" height="173.59004154060253" width="395.52"><g transform="matrix(1,0,0,1,0,126.975185051805)"><svg viewBox="0 0 395.52 46.61485648879753" height="46.61485648879753" width="395.52"><g id="textblocktransform"><svg viewBox="0 0 395.52 46.61485648879753" height="46.61485648879753" width="395.52" id="textblock"><g><svg viewBox="0 0 395.52 25.141826165053388" height="25.141826165053388" width="395.52"><g transform="matrix(1,0,0,1,0,0)"><svg width="395.52" viewBox="3 -30.739999771118164 487.5099792480469 31.110000610351562" height="25.141826165053388" data-palette-color="#bb84e8"><g class="wordmark-text-0" data-fill-palette-color="primary" id="text-0"><path d="M4.74 0Q3.83 0 3.42-0.42 3-0.83 3-1.73L3-1.73 3-29.08Q3-29.79 3.64-30.14 4.27-30.49 5.62-30.49L5.62-30.49 7.08-30.49Q8.42-30.49 9.06-30.14 9.69-29.79 9.69-29.08L9.69-29.08 9.69-5.69 19.36-5.69Q20.04-5.69 20.35-5.18 20.65-4.66 20.65-3.54L20.65-3.54 20.65-2.17Q20.65-1.03 20.35-0.51 20.04 0 19.36 0L19.36 0 4.74 0ZM25.73 0Q24.83 0 24.41-0.42 24-0.83 24-1.73L24-1.73 24-28.66Q24-29.57 24.41-29.97 24.83-30.37 25.73-30.37L25.73-30.37 41.62-30.37Q42.31-30.37 42.61-29.86 42.92-29.35 42.92-28.2L42.92-28.2 42.92-26.88Q42.92-25.73 42.61-25.22 42.31-24.71 41.62-24.71L41.62-24.71 30.69-24.71 30.69-18.41 40.45-18.41Q41.14-18.41 41.44-17.9 41.75-17.38 41.75-16.24L41.75-16.24 41.75-14.89Q41.75-13.75 41.44-13.23 41.14-12.72 40.45-12.72L40.45-12.72 30.69-12.72 30.69-5.69 41.65-5.69Q42.33-5.69 42.64-5.18 42.94-4.66 42.94-3.54L42.94-3.54 42.94-2.17Q42.94-1.03 42.64-0.51 42.33 0 41.65 0L41.65 0 25.73 0ZM47.36 0.07Q44.7 0.07 44.7-0.88L44.7-0.88Q44.7-1.15 44.87-1.66L44.87-1.66 54.44-29.57Q54.78-30.49 56.9-30.49L56.9-30.49 59.15-30.49Q61.27-30.49 61.62-29.57L61.62-29.57 71.19-1.66Q71.31-1.17 71.31-0.88L71.31-0.88Q71.31-0.39 70.78-0.16 70.26 0.07 69.14 0.07L69.14 0.07 67.23 0.07Q66.21 0.07 65.58-0.13 64.96-0.34 64.81-0.83L64.81-0.83 63.06-6.13 52.83-6.13 51.07-0.83Q50.8 0.07 49.07 0.07L49.07 0.07 47.36 0.07ZM54.68-11.87L61.2-11.87 58.74-19.58Q58.52-20.17 58.36-20.92 58.2-21.68 58.08-22.36L58.08-22.36 57.91-22.36 57.81-21.83Q57.56-20.39 57.25-19.58L57.25-19.58 54.68-11.87ZM82.46 0.37Q79.39 0.37 77.06-0.26 74.72-0.88 73.49-1.78 72.26-2.69 72.26-3.49L72.26-3.49Q72.26-4.13 72.73-5.05 73.21-5.98 73.87-6.65 74.53-7.32 74.97-7.32L74.97-7.32Q75.24-7.32 76.12-6.86L76.12-6.86Q77.43-6.18 78.62-5.76 79.8-5.35 81.34-5.35L81.34-5.35Q83.05-5.35 84.23-6.02 85.42-6.69 85.42-8.37L85.42-8.37Q85.42-9.35 84.81-10.06 84.2-10.77 83.24-11.25 82.29-11.74 80.66-12.4L80.66-12.4 78.73-13.23Q76.97-14.09 75.71-15.11 74.46-16.14 73.66-17.82 72.87-19.51 72.87-21.95L72.87-21.95Q72.87-24.93 74.33-26.9 75.8-28.88 78.14-29.81 80.49-30.74 83.17-30.74L83.17-30.74Q85.37-30.74 87.15-30.29 88.93-29.83 89.95-29.13 90.96-28.42 90.96-27.71L90.96-27.71Q90.96-27.12 90.58-26.21 90.2-25.29 89.64-24.61 89.08-23.93 88.59-23.93L88.59-23.93Q88.37-23.93 87.81-24.17L87.81-24.17Q86.91-24.54 85.99-24.77 85.08-25 83.76-25L83.76-25Q81.49-25 80.61-24.28 79.73-23.56 79.73-22.58L79.73-22.58Q79.73-21.46 80.33-20.7 80.93-19.95 81.84-19.46 82.76-18.97 84.39-18.33L84.39-18.33Q86.86-17.29 88.42-16.35 89.98-15.41 91.12-13.65 92.25-11.89 92.25-9.16L92.25-9.16Q92.25-5.81 90.85-3.67 89.45-1.54 87.24-0.59 85.03 0.37 82.46 0.37L82.46 0.37ZM97.74 0Q96.84 0 96.43-0.42 96.01-0.83 96.01-1.73L96.01-1.73 96.01-28.66Q96.01-29.57 96.43-29.97 96.84-30.37 97.74-30.37L97.74-30.37 113.64-30.37Q114.32-30.37 114.63-29.86 114.93-29.35 114.93-28.2L114.93-28.2 114.93-26.88Q114.93-25.73 114.63-25.22 114.32-24.71 113.64-24.71L113.64-24.71 102.7-24.71 102.7-18.41 112.47-18.41Q113.15-18.41 113.45-17.9 113.76-17.38 113.76-16.24L113.76-16.24 113.76-14.89Q113.76-13.75 113.45-13.23 113.15-12.72 112.47-12.72L112.47-12.72 102.7-12.72 102.7-5.69 113.66-5.69Q114.35-5.69 114.65-5.18 114.96-4.66 114.96-3.54L114.96-3.54 114.96-2.17Q114.96-1.03 114.65-0.51 114.35 0 113.66 0L113.66 0 97.74 0ZM132.58 0.37Q128.14 0.37 125.02-1.44 121.91-3.25 120.29-6.73 118.66-10.21 118.66-15.21L118.66-15.21Q118.66-20.19 120.29-23.67 121.91-27.15 125.02-28.94 128.14-30.74 132.58-30.74L132.58-30.74Q137.05-30.74 140.16-28.94 143.27-27.15 144.88-23.67 146.5-20.19 146.5-15.21L146.5-15.21Q146.5-10.21 144.88-6.73 143.27-3.25 140.16-1.44 137.05 0.37 132.58 0.37L132.58 0.37ZM132.58-5.35Q136.07-5.35 137.85-7.87 139.64-10.4 139.64-15.21L139.64-15.21Q139.64-20.02 137.85-22.51 136.07-25 132.58-25L132.58-25Q129.11-25 127.32-22.5 125.52-20 125.52-15.21L125.52-15.21Q125.52-10.4 127.33-7.87 129.14-5.35 132.58-5.35L132.58-5.35ZM154.06 0.07Q151.45 0.07 151.45-1.29L151.45-1.29 151.45-28.66Q151.45-29.57 151.86-29.97 152.28-30.37 153.18-30.37L153.18-30.37 161.65-30.37Q172.45-30.37 172.45-22.24L172.45-22.24Q172.45-19.78 171.07-17.99 169.69-16.21 167.37-15.33L167.37-15.33 167.37-15.16Q168.17-14.82 169.06-13.7 169.96-12.57 170.49-11.16L170.49-11.16 174.33-1.61Q174.52-1.03 174.52-0.78L174.52-0.78Q174.52 0.07 171.93 0.07L171.93 0.07 170.15 0.07Q167.98 0.07 167.64-0.83L167.64-0.83 164.19-9.3Q163.71-10.28 163.25-10.82 162.8-11.35 162-11.63 161.19-11.91 159.82-11.91L159.82-11.91 158.14-11.91 158.14-1.29Q158.14 0.07 155.53 0.07L155.53 0.07 154.06 0.07ZM158.14-17.68L162.24-17.68Q163.12-17.68 163.9-18.18 164.68-18.68 165.15-19.53 165.61-20.39 165.61-21.41L165.61-21.41Q165.61-22.92 164.62-23.82 163.63-24.71 161.95-24.71L161.95-24.71 158.14-24.71 158.14-17.68ZM180.55 0.07Q177.94 0.07 177.94-1.29L177.94-1.29 177.94-28.66Q177.94-29.57 178.35-29.97 178.77-30.37 179.67-30.37L179.67-30.37 188.14-30.37Q198.93-30.37 198.93-22.24L198.93-22.24Q198.93-19.78 197.55-17.99 196.17-16.21 193.85-15.33L193.85-15.33 193.85-15.16Q194.66-14.82 195.55-13.7 196.44-12.57 196.98-11.16L196.98-11.16 200.81-1.61Q201.01-1.03 201.01-0.78L201.01-0.78Q201.01 0.07 198.42 0.07L198.42 0.07 196.64 0.07Q194.46 0.07 194.12-0.83L194.12-0.83 190.68-9.3Q190.19-10.28 189.74-10.82 189.29-11.35 188.48-11.63 187.68-11.91 186.31-11.91L186.31-11.91 184.63-11.91 184.63-1.29Q184.63 0.07 182.01 0.07L182.01 0.07 180.55 0.07ZM184.63-17.68L188.73-17.68Q189.61-17.68 190.39-18.18 191.17-18.68 191.63-19.53 192.1-20.39 192.1-21.41L192.1-21.41Q192.1-22.92 191.11-23.82 190.12-24.71 188.43-24.71L188.43-24.71 184.63-24.71 184.63-17.68ZM206.16 0Q205.25 0 204.84-0.42 204.42-0.83 204.42-1.73L204.42-1.73 204.42-28.66Q204.42-29.57 204.84-29.97 205.25-30.37 206.16-30.37L206.16-30.37 222.05-30.37Q222.73-30.37 223.04-29.86 223.34-29.35 223.34-28.2L223.34-28.2 223.34-26.88Q223.34-25.73 223.04-25.22 222.73-24.71 222.05-24.71L222.05-24.71 211.11-24.71 211.11-18.41 220.88-18.41Q221.56-18.41 221.87-17.9 222.17-17.38 222.17-16.24L222.17-16.24 222.17-14.89Q222.17-13.75 221.87-13.23 221.56-12.72 220.88-12.72L220.88-12.72 211.11-12.72 211.11-5.69 222.07-5.69Q222.76-5.69 223.06-5.18 223.37-4.66 223.37-3.54L223.37-3.54 223.37-2.17Q223.37-1.03 223.06-0.51 222.76 0 222.07 0L222.07 0 206.16 0ZM230.74 0.07Q228.13 0.07 228.13-1.29L228.13-1.29 228.13-29.08Q228.13-29.79 228.76-30.14 229.4-30.49 230.74-30.49L230.74-30.49 232.59-30.49Q233.64-30.49 234.33-30.25 235.01-30 235.45-29.3L235.45-29.3 245.71-13.5 246.88-11.74 246.88-29.08Q246.88-29.79 247.51-30.14 248.15-30.49 249.49-30.49L249.49-30.49 250.73-30.49Q252.08-30.49 252.7-30.14 253.32-29.79 253.32-29.08L253.32-29.08 253.32-1.29Q253.32 0.07 250.73 0.07L250.73 0.07 249.07 0.07Q248 0.07 247.34-0.16 246.68-0.39 246.24-1.07L246.24-1.07 235.5-17.5 234.57-18.87 234.57-1.29Q234.57 0.07 231.98 0.07L231.98 0.07 230.74 0.07ZM267.48 0.07Q264.87 0.07 264.87-1.29L264.87-1.29 264.87-24.71 257.98-24.71Q257.3-24.71 256.99-25.22 256.69-25.73 256.69-26.88L256.69-26.88 256.69-28.2Q256.69-29.35 256.99-29.86 257.3-30.37 257.98-30.37L257.98-30.37 278.52-30.37Q279.2-30.37 279.5-29.86 279.81-29.35 279.81-28.2L279.81-28.2 279.81-26.88Q279.81-25.73 279.5-25.22 279.2-24.71 278.52-24.71L278.52-24.71 271.61-24.71 271.61-1.29Q271.61 0.07 268.99 0.07L268.99 0.07 267.48 0.07ZM286.4 0.07Q283.81 0.07 283.81-1.29L283.81-1.29 283.81-29.08Q283.81-29.79 284.43-30.14 285.06-30.49 286.4-30.49L286.4-30.49 287.94-30.49Q289.28-30.49 289.9-30.14 290.52-29.79 290.52-29.08L290.52-29.08 290.52-18.36 302.24-18.36 302.24-29.08Q302.24-29.79 302.88-30.14 303.51-30.49 304.86-30.49L304.86-30.49 306.37-30.49Q308.98-30.49 308.98-29.08L308.98-29.08 308.98-1.29Q308.98 0.07 306.37 0.07L306.37 0.07 304.86 0.07Q302.24 0.07 302.24-1.29L302.24-1.29 302.24-12.62 290.52-12.62 290.52-1.29Q290.52 0.07 287.94 0.07L287.94 0.07 286.4 0.07ZM327.83 0.37Q323.38 0.37 320.27-1.44 317.16-3.25 315.53-6.73 313.91-10.21 313.91-15.21L313.91-15.21Q313.91-20.19 315.53-23.67 317.16-27.15 320.27-28.94 323.38-30.74 327.83-30.74L327.83-30.74Q332.29-30.74 335.41-28.94 338.52-27.15 340.13-23.67 341.74-20.19 341.74-15.21L341.74-15.21Q341.74-10.21 340.13-6.73 338.52-3.25 335.41-1.44 332.29 0.37 327.83 0.37L327.83 0.37ZM327.83-5.35Q331.32-5.35 333.1-7.87 334.88-10.4 334.88-15.21L334.88-15.21Q334.88-20.02 333.1-22.51 331.32-25 327.83-25L327.83-25Q324.36-25 322.57-22.5 320.77-20 320.77-15.21L320.77-15.21Q320.77-10.4 322.58-7.87 324.38-5.35 327.83-5.35L327.83-5.35ZM349.31 0.07Q346.7 0.07 346.7-1.29L346.7-1.29 346.7-29.08Q346.7-29.79 347.33-30.14 347.97-30.49 349.31-30.49L349.31-30.49 351.6-30.49Q353.68-30.49 354.31-29.3L354.31-29.3 361.61-16.33 361.98-15.7 362.35-16.46 369.69-29.3Q370.35-30.49 372.43-30.49L372.43-30.49 374.7-30.49Q377.31-30.49 377.31-29.08L377.31-29.08 377.31-1.29Q377.31 0.07 374.7 0.07L374.7 0.07 373.43 0.07Q370.82 0.07 370.82-1.29L370.82-1.29 370.82-19.29 370.65-19.34 364.35-8.08Q363.79-7.25 362.61-7.25L362.61-7.25 361.37-7.25Q360.76-7.25 360.34-7.46 359.93-7.67 359.64-8.08L359.64-8.08 353.31-19.34 353.14-19.29 353.14-1.29Q353.14 0.07 350.55 0.07L350.55 0.07 349.31 0.07ZM385 0Q384.1 0 383.68-0.42 383.27-0.83 383.27-1.73L383.27-1.73 383.27-28.66Q383.27-29.57 383.68-29.97 384.1-30.37 385-30.37L385-30.37 400.89-30.37Q401.58-30.37 401.88-29.86 402.19-29.35 402.19-28.2L402.19-28.2 402.19-26.88Q402.19-25.73 401.88-25.22 401.58-24.71 400.89-24.71L400.89-24.71 389.96-24.71 389.96-18.41 399.72-18.41Q400.4-18.41 400.71-17.9 401.01-17.38 401.01-16.24L401.01-16.24 401.01-14.89Q401.01-13.75 400.71-13.23 400.4-12.72 399.72-12.72L399.72-12.72 389.96-12.72 389.96-5.69 400.92-5.69Q401.6-5.69 401.91-5.18 402.21-4.66 402.21-3.54L402.21-3.54 402.21-2.17Q402.21-1.03 401.91-0.51 401.6 0 400.92 0L400.92 0 385 0Z" fill="#000000" data-fill-palette-color="primary"></path><path d="M417.98 0.12Q416.66 0.12 416.01-0.24 415.37-0.61 415.37-1.29L415.37-1.29 415.37-29.08Q415.37-30.52 417.98-30.52L417.98-30.52 419.49-30.52Q420.84-30.52 421.46-30.15 422.08-29.79 422.08-29.08L422.08-29.08 422.08-1.29Q422.08 0.12 419.49 0.12L419.49 0.12 417.98 0.12ZM430.5 0.07Q427.89 0.07 427.89-1.29L427.89-1.29 427.89-29.08Q427.89-29.79 428.52-30.14 429.16-30.49 430.5-30.49L430.5-30.49 432.36-30.49Q433.41-30.49 434.09-30.25 434.77-30 435.21-29.3L435.21-29.3 445.47-13.5 446.64-11.74 446.64-29.08Q446.64-29.79 447.27-30.14 447.91-30.49 449.25-30.49L449.25-30.49 450.5-30.49Q451.84-30.49 452.46-30.14 453.08-29.79 453.08-29.08L453.08-29.08 453.08-1.29Q453.08 0.07 450.5 0.07L450.5 0.07 448.84 0.07Q447.76 0.07 447.1-0.16 446.44-0.39 446-1.07L446-1.07 435.26-17.5 434.33-18.87 434.33-1.29Q434.33 0.07 431.75 0.07L431.75 0.07 430.5 0.07ZM472.32 0.37Q465 0.37 461.52-3.44 458.04-7.25 458.04-15.28L458.04-15.28Q458.04-30.74 472.54-30.74L472.54-30.74Q474.52-30.74 476.64-30.35 478.77-29.96 480.19-29.26 481.62-28.56 481.62-27.71L481.62-27.71Q481.62-27.1 481.13-26.11 480.64-25.12 479.97-24.37 479.3-23.61 478.79-23.61L478.79-23.61Q478.67-23.61 478.13-23.85L478.13-23.85Q476.96-24.34 475.68-24.67 474.39-25 472.42-25L472.42-25Q468.58-25 466.74-22.57 464.9-20.14 464.9-15.23L464.9-15.23Q464.9-10.33 466.75-7.84 468.61-5.35 472.32-5.35L472.32-5.35Q474.25-5.35 475.68-5.74 477.1-6.13 478.47-6.74L478.47-6.74Q478.55-6.76 478.91-6.92 479.28-7.08 479.45-7.08L479.45-7.08Q480.08-7.08 480.67-6.34 481.26-5.59 481.62-4.65 481.99-3.71 481.99-3.3L481.99-3.3Q481.99-2.1 480.39-1.27 478.79-0.44 476.53-0.04 474.27 0.37 472.32 0.37L472.32 0.37ZM486.53 0.07Q483.91 0.07 483.91-1.29L483.91-1.29 483.91-5.3Q483.91-6.69 486.53-6.69L486.53-6.69 487.92-6.69Q489.26-6.69 489.88-6.34 490.51-5.98 490.51-5.3L490.51-5.3 490.51-1.29Q490.51 0.07 487.92 0.07L487.92 0.07 486.53 0.07Z" fill="#000000" data-fill-palette-color="primary"></path></g></svg></g></svg></g><g transform="matrix(1,0,0,1,0,31.07720791879453)"><svg viewBox="0 0 395.52 15.537648570002993" height="15.537648570002993" width="395.52"><g transform="matrix(1,0,0,1,0,0)"><svg width="395.52" viewBox="0.9500000476837158 -37.95000076293945 983.8599853515625 38.650001525878906" height="15.537648570002993" data-palette-color="#bb84e8"><path d="M7.3-36L21.8-36Q27.5-36 29.9-33.5L29.9-33.5Q31.7-31.6 31.7-28.7L31.7-28.7Q31.7-27.7 31.5-26.6L31.5-26.6 30.8-22.7Q30.2-19.45 28.73-17.45 27.25-15.45 25.45-14.6L25.45-14.6 30 0 19.9 0 15.7-13.45 12.6-13.45 10.55 0 0.95 0 7.3-36ZM18.65-28.2L18.65-28.2 14.9-28.2 13.6-19.5 17.1-19.5Q19.75-19.5 20.9-20.78 22.05-22.05 22.05-24.15L22.05-24.15Q22.05-28.2 18.65-28.2ZM113.71 0.7L113.71 0.7Q103.31 0.7 103.31-6.5L103.31-6.5Q103.31-7.5 103.51-8.65L103.51-8.65 104.56-14.85Q105.41-19.65 108.98-22.23 112.56-24.8 118.46-24.8L118.46-24.8Q128.51-24.8 128.51-17.2L128.51-17.2Q128.51-16.1 128.31-14.8L128.31-14.8 127.71-11.25 112.46-11.25 112.26-10.1Q112.16-9.5 112.16-9L112.16-9Q112.16-6.25 115.41-6.25L115.41-6.25Q116.61-6.25 117.46-7 118.31-7.75 118.46-8.75L118.46-8.75 126.76-8.65Q125.11 0.7 113.71 0.7ZM112.96-14.3L119.71-14.3Q119.91-15.15 119.91-15.88 119.91-16.6 119.26-17.35 118.61-18.1 117.18-18.1 115.76-18.1 114.58-17.15 113.41-16.2 112.96-14.3L112.96-14.3ZM224.36-7.7L224.36-7.7Q224.36-6.4 225.69-6.4 227.01-6.4 227.91-6.9L227.91-6.9 227.66-1.25Q225.26 0.7 222.26 0.7L222.26 0.7Q216.76 0.7 216.16-3.3L216.16-3.3Q213.66 0.7 208.81 0.7L208.81 0.7Q200.61 0.7 200.61-6.35L200.61-6.35Q200.61-7.55 200.86-9L200.86-9 201.91-14.85Q202.71-19.35 205.59-22.03 208.46-24.7 213.09-24.7 217.71-24.7 219.36-22.55L219.36-22.55 219.61-24.05 227.21-24.05 224.41-8.3Q224.36-8 224.36-7.7ZM210.21-13.85L209.56-10.1Q209.46-9.65 209.46-8.85 209.46-8.05 210.21-7.28 210.96-6.5 212.74-6.5 214.51-6.5 215.81-7.9L215.81-7.9 217.31-16.3Q216.76-17.55 214.71-17.55L214.71-17.55Q210.86-17.55 210.21-13.85L210.21-13.85ZM310.02-7.7L310.02-7.7Q310.02-6.4 311.34-6.4 312.67-6.4 313.57-6.9L313.57-6.9 313.32-1.25Q310.92 0.7 307.92 0.7L307.92 0.7Q303.37 0.7 302.02-1.4L302.02-1.4Q301.17-2.75 301.17-4.35 301.17-5.95 301.37-7.15L301.37-7.15 306.82-37.95 315.32-37.95 310.07-8.3Q310.02-8 310.02-7.7ZM494.43-7.8L493.03 0 467.93 0 474.28-36 499.38-36 497.98-28.2 481.88-28.2 480.73-21.45 494.03-21.45 492.63-13.65 479.33-13.65 478.33-7.8 494.43-7.8ZM593.64-18.85L593.64-18.85Q593.64-17.2 592.64-15.8L592.64-15.8 584.44-15.8Q584.84-16.1 584.84-16.8 584.84-17.5 584.04-17.93 583.24-18.35 581.99-18.35L581.99-18.35Q578.24-18.35 578.24-16.05L578.24-16.05Q578.24-15.15 579.64-14.75 581.04-14.35 583.04-14.1 585.04-13.85 587.04-13.38 589.04-12.9 590.44-11.5 591.84-10.1 591.84-7.75L591.84-7.75Q591.84-3.6 588.51-1.45 585.19 0.7 578.84 0.7 572.49 0.7 569.94-1.35L569.94-1.35Q567.94-2.95 567.94-5.75L567.94-5.75Q567.94-6.55 568.09-7.4L568.09-7.4 576.44-7.5Q576.34-6.8 577.26-6.28 578.19-5.75 579.99-5.75 581.79-5.75 582.59-6.13 583.39-6.5 583.39-7.55L583.39-7.55Q583.39-8.25 581.99-8.53 580.59-8.8 578.56-9 576.54-9.2 574.51-9.65 572.49-10.1 571.09-11.55 569.69-13 569.69-15.35L569.69-15.35Q569.69-19.9 573.21-22.35 576.74-24.8 583.39-24.8L583.39-24.8Q593.64-24.8 593.64-18.85ZM676.49 0.7L676.49 0.7Q670.69 0.7 668.14-1.9L668.14-1.9Q666.24-3.8 666.24-7L666.24-7Q666.24-8.05 666.44-9.25L666.44-9.25 669.84-28.6 678.99-32.4 677.54-24.05 691.34-24.05 690.09-17 676.29-17 675.29-11.35Q675.09-10.4 675.09-9.65L675.09-9.65Q675.09-6.5 678.09-6.5L678.09-6.5Q679.69-6.5 680.77-7.85 681.84-9.2 682.24-11.45L682.24-11.45 690.54-11.45Q688.44 0.7 676.49 0.7ZM786.4-7.7L786.4-7.7Q786.4-6.4 787.72-6.4 789.05-6.4 789.95-6.9L789.95-6.9 789.7-1.25Q787.3 0.7 784.3 0.7L784.3 0.7Q778.8 0.7 778.2-3.3L778.2-3.3Q775.7 0.7 770.85 0.7L770.85 0.7Q762.65 0.7 762.65-6.35L762.65-6.35Q762.65-7.55 762.9-9L762.9-9 763.95-14.85Q764.75-19.35 767.62-22.03 770.5-24.7 775.12-24.7 779.75-24.7 781.4-22.55L781.4-22.55 781.65-24.05 789.25-24.05 786.45-8.3Q786.4-8 786.4-7.7ZM772.25-13.85L771.6-10.1Q771.5-9.65 771.5-8.85 771.5-8.05 772.25-7.28 773-6.5 774.77-6.5 776.55-6.5 777.85-7.9L777.85-7.9 779.35-16.3Q778.8-17.55 776.75-17.55L776.75-17.55Q772.9-17.55 772.25-13.85L772.25-13.85ZM873.45 0.7L873.45 0.7Q867.65 0.7 865.1-1.9L865.1-1.9Q863.2-3.8 863.2-7L863.2-7Q863.2-8.05 863.4-9.25L863.4-9.25 866.8-28.6 875.95-32.4 874.5-24.05 888.3-24.05 887.05-17 873.25-17 872.25-11.35Q872.05-10.4 872.05-9.65L872.05-9.65Q872.05-6.5 875.05-6.5L875.05-6.5Q876.65-6.5 877.73-7.85 878.8-9.2 879.2-11.45L879.2-11.45 887.5-11.45Q885.4 0.7 873.45 0.7ZM970.01 0.7L970.01 0.7Q959.61 0.7 959.61-6.5L959.61-6.5Q959.61-7.5 959.81-8.65L959.81-8.65 960.86-14.85Q961.71-19.65 965.28-22.23 968.86-24.8 974.76-24.8L974.76-24.8Q984.81-24.8 984.81-17.2L984.81-17.2Q984.81-16.1 984.61-14.8L984.61-14.8 984.01-11.25 968.76-11.25 968.56-10.1Q968.46-9.5 968.46-9L968.46-9Q968.46-6.25 971.71-6.25L971.71-6.25Q972.91-6.25 973.76-7 974.61-7.75 974.76-8.75L974.76-8.75 983.06-8.65Q981.41 0.7 970.01 0.7ZM969.26-14.3L976.01-14.3Q976.21-15.15 976.21-15.88 976.21-16.6 975.56-17.35 974.91-18.1 973.48-18.1 972.06-18.1 970.88-17.15 969.71-16.2 969.26-14.3L969.26-14.3Z" opacity="1" transform="matrix(1,0,0,1,0,0)" fill="#000000" class="slogan-text-1" data-fill-palette-color="secondary" id="text-1"></path></svg></g></svg></g></svg></g></svg></g><g transform="matrix(1,0,0,1,140.20778922783865,0)"><svg viewBox="0 0 115.10442154432272 115.10442154432272" height="115.10442154432272" width="115.10442154432272"><g><svg></svg></g><g id="icon-0"><svg viewBox="0 0 115.10442154432272 115.10442154432272" height="115.10442154432272" width="115.10442154432272"><g><path d="M0 57.552c0-31.785 25.767-57.552 57.552-57.552 31.785 0 57.552 25.767 57.552 57.552 0 31.785-25.767 57.552-57.552 57.552-31.785 0-57.552-25.767-57.552-57.552zM57.552 112.837c30.533 0 55.285-24.752 55.285-55.285 0-30.533-24.752-55.285-55.285-55.285-30.533 0-55.285 24.752-55.285 55.285 0 30.533 24.752 55.285 55.285 55.285z" data-fill-palette-color="accent" fill="#000000" stroke="transparent"></path></g><g transform="matrix(1,0,0,1,22.77457072088226,33.184209289882354)"><svg viewBox="0 0 69.5552801025582 48.73600296455801" height="48.73600296455801" width="69.5552801025582"><g><svg xmlns="http://www.w3.org/2000/svg" xmlns:xlink="http://www.w3.org/1999/xlink" version="1.1" x="0" y="0" viewBox="0.8730000257492065 15.552000045776367 98.27307891845703 68.85799407958984" enable-background="new 0 0 100 100" xml:space="preserve" height="48.73600296455801" width="69.5552801025582" class="icon-s-0" data-fill-palette-color="accent" id="s-0"><g fill="#bb84e8" data-fill-palette-color="accent"><path d="M98.729 71.51l-12.8-11.324c-0.311-0.276-0.736-0.374-1.134-0.27l-8.471 2.234c-0.492 0.13-0.856 0.55-0.913 1.057l-0.208 1.857-4.223-1.035-0.001-9.892 4.448 4.062 3.999-4.382L53.746 30.38 27.835 53.586l3.957 4.418 4.439-3.974 0.027 30.38 7.561-0.001V67.928h7.27v16.481l19.894-0.001-0.002-18.984 4.069 0.998-0.614 5.495c-0.047 0.402 0.106 0.801 0.412 1.067L87.52 84.103c0.233 0.206 0.524 0.307 0.815 0.307 0.341 0 0.678-0.14 0.922-0.413l9.575-10.737c0.22-0.245 0.331-0.567 0.312-0.896C99.123 72.034 98.975 71.729 98.729 71.51zM51.089 61.143h-7.27v-7.499h7.27V61.143zM63.651 61.143h-7.271v-7.499h7.271V61.143zM88.228 81.438l-11.267-9.886 0.511-4.538 1.89 0.464c0.067 0.824 0.641 1.551 1.487 1.757 1.057 0.26 2.126-0.387 2.387-1.446 0.26-1.058-0.388-2.126-1.446-2.385-0.806-0.198-1.615 0.133-2.072 0.768l-2.094-0.515 0.15-1.332 7.012-1.852 11.378 10.065L88.228 81.438z" fill="#000000" data-fill-palette-color="accent"></path></g><rect x="13.353" y="34.025" width="4.837" height="4.836" fill="#000000" data-fill-palette-color="accent"></rect><rect x="20.608" y="34.025" width="4.837" height="4.836" fill="#000000" data-fill-palette-color="accent"></rect><rect x="27.863" y="34.025" width="4.837" height="4.836" fill="#000000" data-fill-palette-color="accent"></rect><rect x="6.027" y="41.29" width="4.837" height="4.837" fill="#000000" data-fill-palette-color="accent"></rect><rect x="13.282" y="41.29" width="4.837" height="4.837" fill="#000000" data-fill-palette-color="accent"></rect><rect x="20.538" y="41.29" width="4.836" height="4.837" fill="#000000" data-fill-palette-color="accent"></rect><rect x="27.792" y="41.29" width="4.837" height="4.837" fill="#000000" data-fill-palette-color="accent"></rect><rect x="6.098" y="48.545" width="4.837" height="4.836" fill="#000000" data-fill-palette-color="accent"></rect><rect x="13.353" y="48.545" width="4.837" height="4.836" fill="#000000" data-fill-palette-color="accent"></rect><rect x="20.608" y="48.545" width="4.837" height="4.836" fill="#000000" data-fill-palette-color="accent"></rect><path d="M12.841 23.177v-5.691c0-1.068-0.867-1.934-1.934-1.934-1.068 0-1.934 0.865-1.934 1.934v5.691H12.841z" fill="#000000" data-fill-palette-color="accent"></path><path d="M29.769 23.177v-5.691c0-1.068-0.866-1.934-1.934-1.934-1.067 0-1.934 0.865-1.934 1.934v5.691H29.769z" fill="#000000" data-fill-palette-color="accent"></path><path d="M25.445 55.944H5.227c-0.8 0-1.451-0.65-1.451-1.451V31.848c0-0.04 0.003-0.081 0.006-0.12h31.165c0.003 0.04 0.006 0.08 0.006 0.12v8.77l2.902-2.646V23.173H0.873v0.004 31.316c0 2.4 1.953 4.354 4.354 4.354h20.218V55.944zM25.904 26.623v-1.725-1.721h3.862v1.721 1.725 0.069h-0.003c-0.037 1.034-0.884 1.862-1.928 1.862-1.043 0-1.891-0.828-1.928-1.862h-0.003V26.623zM8.973 26.623v-1.725-1.721h3.862v1.721 1.725 0.069h-0.003c-0.037 1.034-0.884 1.862-1.927 1.862-1.043 0-1.892-0.828-1.928-1.862H8.973V26.623z" fill="#000000" data-fill-palette-color="accent"></path></svg></g></svg></g></svg></g></svg></g><g></g></svg></g><defs></defs></svg><rect width="395.52" height="173.59004154060253" fill="none" stroke="none" visibility="hidden"></rect></g></svg></g></svg>